<?xml version="1.0" encoding="UTF-8" standalone="no"?>
<!-- Created with Inkscape (http://www.inkscape.org/) -->

<svg
   xmlns:dc="http://purl.org/dc/elements/1.1/"
   xmlns:cc="http://creativecommons.org/ns#"
   xmlns:rdf="http://www.w3.org/1999/02/22-rdf-syntax-ns#"
   xmlns:svg="http://www.w3.org/2000/svg"
   xmlns="http://www.w3.org/2000/svg"
   xmlns:sodipodi="http://sodipodi.sourceforge.net/DTD/sodipodi-0.dtd"
   xmlns:inkscape="http://www.inkscape.org/namespaces/inkscape"
   width="210mm"
   height="297mm"
   viewBox="0 0 744.09448819 1052.3622047"
   id="svg2"
   version="1.1"
   inkscape:version="0.91 r13725"
   sodipodi:docname="donut.svg">
  <defs
     id="defs4" />
  <sodipodi:namedview
     id="base"
     pagecolor="#ffffff"
     bordercolor="#666666"
     borderopacity="1.0"
     inkscape:pageopacity="0.0"
     inkscape:pageshadow="2"
     inkscape:zoom="0.72503554"
     inkscape:cx="97.010075"
     inkscape:cy="820.58873"
     inkscape:document-units="px"
     inkscape:current-layer="layer1"
     showgrid="false"
     showborder="false"
     inkscape:snap-others="false"
     inkscape:snap-global="true"
     inkscape:snap-bbox="false"
     inkscape:snap-to-guides="true"
     inkscape:window-width="1920"
     inkscape:window-height="1018"
     inkscape:window-x="-8"
     inkscape:window-y="-8"
     inkscape:window-maximized="1" />
  <metadata
     id="metadata7">
    <rdf:RDF>
      <cc:Work
         rdf:about="">
        <dc:format>image/svg+xml</dc:format>
        <dc:type
           rdf:resource="http://purl.org/dc/dcmitype/StillImage" />
        <dc:title />
      </cc:Work>
    </rdf:RDF>
  </metadata>
  <g
     inkscape:label="Layer 1"
     inkscape:groupmode="layer"
     id="layer1">
    <g
       id="g3577"
       transform="matrix(0.55168732,0,0,0.55168732,-115.19466,-2.1452405)">
      <path
         id="path4304"
         d="M 8.0390625,18.417969 A 250,239.28572 0 0 0 -241.96094,257.70312 250,239.28572 0 0 0 8.0390625,496.98828 250,239.28572 0 0 0 258.03906,257.70312 a 250,239.28572 0 0 0 -16.79883,-85.48437 34.453895,37.235318 45.516818 0 1 -21.75195,-9.69336 34.453895,37.235318 45.516818 0 1 -7.84375,-33.49609 51.18205,54.799236 45.516817 0 1 -60.50586,-8.45899 51.18205,54.799236 45.516817 0 1 -6.10156,-62.902341 250,239.28572 0 0 0 -0.5332,-0.365235 34.453895,37.235318 45.516818 0 1 -38.08008,-6.8125 A 34.453895,37.235318 45.516818 0 1 97.900391,34.449219 250,239.28572 0 0 0 8.0390625,18.417969 Z m 0,155.535151 a 87.5,83.75 0 0 1 87.4999995,83.75 87.5,83.75 0 0 1 -87.4999995,83.75 87.5,83.75 0 0 1 -87.5000005,-83.75 87.5,83.75 0 0 1 87.5000005,-83.75 z"
         style="opacity:1;fill:#ffccaa"
         inkscape:connector-curvature="0" />
      <path
         id="path4361"
         d="m 10.732422,-4.78125 c -88.69773,0.569608 -176.514152,45.393211 -225.470702,120.47266 -28.03351,42.13951 -42.8336,92.66035 -42.19336,143.17382 0.0361,9.92701 1.49307,22.85228 6.76562,34.97461 2.6426,6.07571 6.31825,12.05234 11.92579,16.82422 5.60754,4.77187 13.41165,7.98119 21.79492,7.95508 13.45376,-0.0419 24.2876,-9.05505 29.42187,-18.55664 5.13426,-9.50158 7.24548,-19.75665 9.5918,-29.11328 2.34633,-9.35662 4.93204,-17.71039 7.87109,-22.22656 2.93905,-4.51617 4.17633,-5.85613 10.84375,-5.69727 4.98692,0.11879 6.27137,1.32292 9.42578,6.33203 3.15441,5.0091 6.10372,13.65381 9.27344,23.10742 3.16973,9.4536 6.55658,19.81166 13.44727,28.91407 6.89069,9.10241 18.94135,16.27308 33.167966,15.75976 15.42744,-0.55665 27.420069,-10.7157 33.011719,-22.19531 5.59165,-11.47961 6.972626,-24.27488 7.003906,-36.1582 a 12.50125,12.50125 0 0 0 -0.01172,-0.56641 c -0.90784,-21.27253 9.943457,-43.59803 28.128907,-54.84375 a 12.50125,12.50125 0 0 0 0.285156,-0.18164 c 11.37825,-7.46913 25.11535719,-11.50492 38.929687,-11.5293 a 12.50125,12.50125 0 0 0 0.306641,-0.004 c 33.4412,-0.87722 67.324093,30.05338 66.251953,63.74414 a 12.50125,12.50125 0 0 0 -0.0059,0.28906 c -0.0206,2.33188 0.0486,2.42223 0.119141,4.88476 0.0705,2.46254 0.165332,5.65238 0.257812,8.8379 0.0925,3.18552 0.183827,6.36949 0.248047,8.79882 0.0321,1.21466 0.05706,2.24308 0.07227,2.9668 0.0152,0.72373 -0.07835,2.52345 0.03125,0.45508 a 12.50125,12.50125 0 0 0 -0.01562,0.92187 c 0.3049,14.66446 3.670318,31.35709 10.574218,45.77735 3.45195,7.21013 7.805585,13.90708 13.802737,19.25 5.99715,5.34292 14.13955,9.25047 23.11914,9.20117 6.86151,-0.0377 13.63667,-2.71138 18.37109,-6.86523 4.73441,-4.15387 7.62807,-9.2453 9.77344,-14.39063 4.29072,-10.29066 5.95843,-21.58087 7.93946,-32.23047 1.98103,-10.64961 4.29702,-20.56874 7.26171,-26.2793 2.96468,-5.71056 3.98323,-6.91503 9.52539,-6.97656 1.05063,-0.0117 0.72508,-0.11196 1.51368,0.5918 0.7886,0.70377 2.28561,2.68801 3.7539,5.95117 2.93657,6.52629 5.57138,17.46379 8.65235,29.04102 3.08097,11.57723 6.59897,23.96261 13.73633,34.72851 7.13736,10.76589 19.75199,19.72084 35.43554,19.74414 8.57784,0.0127 15.12086,-4.82166 19.72852,-10.04297 4.60766,-5.22132 8.03698,-11.49566 10.93164,-18.51562 5.77753,-14.01132 9.23037,-31.05029 9.16015,-47.58203 0.47564,-34.20717 -5.66637,-79.51635 -18.91211,-118.46875 a 34.449181,41.143922 45.51682 0 1 -52.86718,3.67187 34.449181,41.143922 45.51682 0 1 -6.50196,-34.80664 51.175047,60.55153 45.51682 0 1 -63.29101,-5.71484 A 51.175047,60.55153 45.51682 0 1 140.26172,62.025391 34.449181,41.143922 45.51682 0 1 99.5,57.304688 34.449181,41.143922 45.51682 0 1 100.26172,8.9824219 C 87.091015,4.694798 73.585671,1.4045502 59.876953,-0.79296875 43.650463,-3.5348158 27.196727,-4.867046 10.748047,-4.78125 a 12.50125,12.50125 0 0 0 -0.01563,0 z M 163.00586,38.691406 a 34.449181,41.143922 45.51682 0 1 -0.70313,1.576172 51.175047,60.55153 45.51682 0 1 1.66211,-0.970703 c -0.31769,-0.205006 -0.64044,-0.401778 -0.95898,-0.605469 z"
         style="color:#000000;font-style:normal;font-variant:normal;font-weight:normal;font-stretch:normal;font-size:medium;line-height:normal;font-family:sans-serif;text-indent:0;text-align:start;text-decoration:none;text-decoration-line:none;text-decoration-style:solid;text-decoration-color:#000000;letter-spacing:normal;word-spacing:normal;text-transform:none;direction:ltr;block-progression:tb;writing-mode:lr-tb;baseline-shift:baseline;text-anchor:start;white-space:normal;clip-rule:nonzero;display:inline;overflow:visible;visibility:visible;opacity:1;isolation:auto;mix-blend-mode:normal;color-interpolation:sRGB;color-interpolation-filters:linearRGB;solid-color:#000000;solid-opacity:1;fill:#d59c96;fill-opacity:0.9435222;fill-rule:nonzero;stroke:none;stroke-width:25;stroke-linecap:round;stroke-linejoin:round;stroke-miterlimit:4;stroke-dasharray:none;stroke-dashoffset:0;stroke-opacity:1;color-rendering:auto;image-rendering:auto;shape-rendering:auto;text-rendering:auto;enable-background:accumulate"
         inkscape:connector-curvature="0" />
      <path
         id="path4326"
         d="M 5.4082031,10.490234 C -79.118237,11.033054 -163.26699,54.084237 -209.70312,125.33594 c -26.62872,40.00579 -40.75407,88.19749 -40.13672,136.1875 0.0504,17.04883 5.9173,47.43577 27.95117,47.36718 36.19366,-0.11266 16.2606,-76.58582 58.0664,-75.58984 36.89772,0.87904 22.25118,75.644 64.566411,74.11719 22.030796,-0.79491 27.908205,-24.38066 27.964843,-45.89453 -1.098584,-25.74222 11.619688,-52.14146 34.042969,-66.00782 13.489245,-8.85487 29.553931,-13.55145 45.7675782,-13.58007 40.9561748,-1.07435 80.4036358,34.86313 79.0742188,76.63867 -0.0087,0.98637 0.76291,25.51552 0.710938,26.49609 0.532197,25.59666 12.763262,62.10998 34.929692,61.98828 33.34206,-0.18305 12.6949,-86.29494 52.80078,-86.74023 31.93229,-0.35454 16.68815,89.98553 63.25,90.05469 14.33841,0.0213 27.45494,-34.32628 27.30468,-63.67969 0.4443,-30.7956 -5.3748,-72.73513 -16.72461,-108.9043 a 34.445237,44.564368 45.516821 0 1 -43.08398,-2.81445 34.445237,44.564368 45.516821 0 1 -5.32813,-35.95508 51.169188,65.585403 45.51682 0 1 -65.72656,-3.31445 51.169188,65.585403 45.51682 0 1 0.002,-69.220705 34.445237,44.564368 45.516821 0 1 -42.287114,-3.216797 34.445237,44.564368 45.516821 0 1 -3.61914,-39.982422 C 77.617212,19.367894 65.12585,16.341132 52.458984,14.3125 36.924985,11.68356 21.163068,10.408057 5.4082031,10.490234 Z"
         style="opacity:1;fill:#e9afaf"
         inkscape:connector-curvature="0" />
      <path
         id="path4364"
         d="m -163.30859,244.17383 c -6.66742,-0.15886 -7.9047,1.18109 -10.84375,5.69726 -2.93905,4.51617 -5.52477,12.86995 -7.8711,22.22657 -1.39703,5.57108 -2.72449,11.45894 -4.64258,17.31836 8.84302,47.70581 36.1579,92.20253 77.21875,119.01953 65.942089,45.95718 158.905841,49.29454 226.69336,5.56445 35.06629,-21.69398 62.79043,-55.5556 77.4668,-94.02344 -1.44079,-4.42842 -2.6545,-8.86987 -3.80664,-13.19922 -3.08097,-11.57723 -5.71577,-22.51472 -8.65234,-29.04101 -1.46829,-3.26316 -2.96531,-5.2474 -3.75391,-5.95117 -0.7886,-0.70376 -0.46305,-0.6035 -1.51367,-0.5918 -5.54217,0.0615 -6.56071,1.266 -9.52539,6.97656 -2.96469,5.71056 -5.28069,15.62969 -7.26172,26.2793 -1.98103,10.6496 -3.64873,21.93981 -7.93945,32.23047 -2.14537,5.14533 -5.03903,10.23676 -9.77344,14.39062 -4.73442,4.15385 -11.50959,6.82754 -18.3711,6.86524 -6.32829,0.0347 -12.23654,-1.9029 -17.27539,-4.91602 -22.499023,22.58921 -52.290364,37.85368 -84.312496,40.2207 -58.027733,6.33871 -118.232651,-27.84493 -142.492184,-80.70507 -4.49211,-2.71506 -8.30384,-6.18568 -11.19727,-10.00782 -6.89069,-9.10241 -10.27754,-19.46046 -13.44727,-28.91406 -3.16972,-9.45361 -6.11902,-18.09832 -9.27343,-23.10742 -3.15441,-5.00911 -4.43886,-6.21324 -9.42578,-6.33203 z"
         style="opacity:0.29500002;fill:#ffffff;fill-opacity:1"
         inkscape:connector-curvature="0" />
      <path
         id="path3485"
         d="M 6.2851562,70.316406 C -73.048949,69.658063 -151.63136,121.57859 -179.27148,196.50195 c -4.77863,12.78338 -7.87074,26.04781 -9.39258,39.47852 2.01718,-2.30165 4.32144,-4.39628 6.99218,-6.21289 16.03105,-10.19275 39.90168,-2.33656 46.67774,15.45898 1.36122,2.45519 2.51085,5.03445 3.55664,7.67578 1.47427,-29.91833 13.10195,-59.39216 32.476562,-82.30664 18.399096,-22.46686 44.443489,-38.14825 72.75586,-44.41797 11.614508,-2.88127 23.5692036,-4.35709 35.533203,-4.46679 70.244815,-1.49065 135.541885,59.35017 138.345705,129.67578 0.42778,7.5177 0.12439,14.99386 -0.83594,22.35742 1.65177,-3.6118 3.67574,-7.08406 6.24023,-10.35352 9.04741,-12.61984 29.45938,-15.2151 40.31641,-3.49609 5.3506,6.8346 8.61036,14.62578 11.09766,22.76758 1.88476,-12.91464 2.27377,-26.05526 0.97265,-39.17969 -2.52219,-32.10128 -14.31246,-63.15676 -32.78125,-89.59961 A 51.162762,71.339018 45.516821 0 1 127.50586,143.7793 51.162762,71.339018 45.516821 0 1 117.44727,101.49023 C 112.40415,98.392744 107.20451,95.546698 101.86328,92.974609 72.416022,77.767214 39.305172,70.0108 6.2851562,70.316406 Z M 138.98438,304.07227 c -4.81211,12.30214 -11.42989,23.9275 -19.4961,34.47461 5.36891,1.50213 11.29197,-1.65645 12.54883,-7.44532 3.65609,-8.52728 5.34102,-17.76991 6.94727,-27.02929 z"
         style="opacity:0.37000002;fill:#ffffff;fill-opacity:1"
         inkscape:connector-curvature="0" />
      <rect
         style="opacity:1;fill:#916f6f"
         id="rect3547"
         width="59.595646"
         height="14.311146"
         x="22.496939"
         y="105.0106"
         ry="7.1555729"
         transform="matrix(0.91379226,0.40618187,-0.45062636,0.89271266,0,0)" />
      <rect
         style="opacity:1;fill:#800000"
         id="rect3549"
         width="59.595646"
         height="14.311146"
         x="-33.811764"
         y="73.465843"
         ry="7.1555729"
         transform="matrix(0.91379226,0.40618187,-0.45062636,0.89271266,0,0)" />
      <rect
         style="opacity:1;fill:#800000"
         id="rect3551"
         width="59.595646"
         height="14.311146"
         x="-65.309219"
         y="233.02728"
         ry="7.1555729"
         transform="matrix(0.91379226,0.40618187,-0.45062636,0.89271266,0,0)" />
      <rect
         style="opacity:1;fill:#6c5353"
         id="rect3553"
         width="59.595646"
         height="14.311146"
         x="143.48421"
         y="96.311775"
         ry="7.1555729"
         transform="matrix(0.91379226,0.40618187,-0.45062636,0.89271266,0,0)" />
      <rect
         style="opacity:1;fill:#800000"
         id="rect3555"
         width="59.595646"
         height="14.311146"
         x="200.65105"
         y="190.81117"
         ry="7.1555729"
         transform="matrix(0.91379226,0.40618187,-0.45062636,0.89271266,0,0)" />
      <rect
         style="opacity:1;fill:#800000"
         id="rect3557"
         width="59.595646"
         height="14.311146"
         x="289.24457"
         y="107.24129"
         ry="7.1555729"
         transform="matrix(0.91379226,0.40618187,-0.45062636,0.89271266,0,0)" />
      <rect
         style="opacity:1;fill:#800000"
         id="rect3559"
         width="63.443871"
         height="13.207211"
         x="-54.589653"
         y="148.90581"
         ry="6.6036053"
         transform="matrix(0.87703737,-0.48042216,0.2708756,0.96261436,0,0)" />
      <rect
         style="opacity:1;fill:#800000"
         id="rect3561"
         width="63.443871"
         height="13.207211"
         x="-158.90015"
         y="8.0122948"
         ry="6.6036053"
         transform="matrix(0.87703737,-0.48042216,0.2708756,0.96261436,0,0)" />
      <rect
         style="opacity:1;fill:#6c5353"
         id="rect3563"
         width="63.443871"
         height="13.207211"
         x="-194.18163"
         y="168.07234"
         ry="6.6036053"
         transform="matrix(0.87703737,-0.48042216,0.2708756,0.96261436,0,0)" />
      <rect
         style="opacity:1;fill:#916f6f"
         id="rect3565"
         width="63.443871"
         height="13.207211"
         x="-321.88107"
         y="102.90722"
         ry="6.6036053"
         transform="matrix(0.87703737,-0.48042216,0.2708756,0.96261436,0,0)" />
      <rect
         style="opacity:1;fill:#6c5353"
         id="rect3567"
         width="63.443871"
         height="13.207211"
         x="-0.36828747"
         y="59.9091"
         ry="6.6036053"
         transform="matrix(0.87703737,-0.48042216,0.2708756,0.96261436,0,0)" />
      <rect
         style="opacity:1;fill:#6c5353"
         id="rect3569"
         width="63.443871"
         height="13.207211"
         x="238.96217"
         y="-24.200306"
         ry="6.6036053"
         transform="matrix(0.57674607,0.81692348,-0.92570298,0.37825124,0,0)" />
      <rect
         style="opacity:1;fill:#916f6f"
         id="rect3571"
         width="63.443871"
         height="13.207211"
         x="331.13693"
         y="-26.369778"
         ry="6.6036053"
         transform="matrix(0.57674607,0.81692348,-0.92570298,0.37825124,0,0)" />
      <rect
         style="opacity:1;fill:#6c5353"
         id="rect3573"
         width="63.443871"
         height="13.207211"
         x="86.721924"
         y="155.09769"
         ry="6.6036053"
         transform="matrix(0.57674607,0.81692348,-0.92570298,0.37825124,0,0)" />
      <rect
         style="opacity:1;fill:#800000"
         id="rect3575"
         width="63.443871"
         height="13.207211"
         x="92.542137"
         y="-21.558952"
         ry="6.6036053"
         transform="matrix(0.57674607,0.81692348,-0.92570298,0.37825124,0,0)" />
      <rect
         transform="matrix(0.57674607,0.81692348,-0.92570298,0.37825124,0,0)"
         ry="6.6036053"
         y="212.09692"
         x="29.9401"
         height="13.207211"
         width="63.443871"
         id="rect3545"
         style="opacity:1;fill:#916f6f" />
    </g>
  </g>
</svg>
